{
	"asset":{
		"generator":"Khronos glTF Blender I/O v3.6.27",
		"version":"2.0"
	},
	"scene":0,
	"scenes":[
		{
			"name":"Scene",
			"nodes":[
				0
			]
		}
	],
	"nodes":[
		{
			"mesh":0,
			"name":"ball bearing",
			"scale":[
				-0.058743953704833984,
				-0.05949530005455017,
				-0.058743953704833984
			],
			"translation":[
				-1.141954779624939,
				-0.1201208159327507,
				-0.3640250563621521
			]
		}
	],
	"materials":[
		{
			"doubleSided":true,
			"name":"Screws",
			"pbrMetallicRoughness":{
				"baseColorFactor":[
					0.20212391018867493,
					0.20790664851665497,
					0.15899208188056946,
					1
				],
				"roughnessFactor":0.2199999988079071
			}
		},
		{
			"doubleSided":true,
			"name":"Outer Rim",
			"pbrMetallicRoughness":{
				"baseColorFactor":[
					0.24795131385326385,
					0.25978726148605347,
					0.2229243516921997,
					1
				],
				"roughnessFactor":0.3499999940395355
			}
		},
		{
			"doubleSided":true,
			"name":"Inner Rim",
			"pbrMetallicRoughness":{
				"baseColorFactor":[
					0.24705220758914948,
					0.28712940216064453,
					0.2941523790359497,
					1
				],
				"roughnessFactor":0.2199999988079071
			}
		},
		{
			"doubleSided":true,
			"name":"Balls",
			"pbrMetallicRoughness":{
				"baseColorFactor":[
					0.20247814059257507,
					0.23926296830177307,
					0.24119657278060913,
					1
				],
				"roughnessFactor":0.20000000298023224
			}
		}
	],
	"meshes":[
		{
			"name":"Cylinder.015",
			"primitives":[
				{
					"attributes":{
						"POSITION":0,
						"NORMAL":1,
						"TEXCOORD_0":2
					},
					"indices":3,
					"material":0
				},
				{
					"attributes":{
						"POSITION":4,
						"NORMAL":5,
						"TEXCOORD_0":6
					},
					"indices":7,
					"material":1
				},
				{
					"attributes":{
						"POSITION":8,
						"NORMAL":9,
						"TEXCOORD_0":10
					},
					"indices":11,
					"material":2
				},
				{
					"attributes":{
						"POSITION":12,
						"NORMAL":13,
						"TEXCOORD_0":14
					},
					"indices":15,
					"material":3
				}
			]
		}
	],
	"accessors":[
		{
			"bufferView":0,
			"componentType":5126,
			"count":304040,
			"max":[
				1.090756893157959,
				0.9473916292190552,
				14.046630859375
			],
			"min":[
				-37.80325698852539,
				-1.6826437711715698,
				-26.397062301635742
			],
			"type":"VEC3"
		},
		{
			"bufferView":1,
			"componentType":5126,
			"count":304040,
			"type":"VEC3"
		},
		{
			"bufferView":2,
			"componentType":5126,
			"count":304040,
			"type":"VEC2"
		},
		{
			"bufferView":3,
			"componentType":5125,
			"count":1474560,
			"type":"SCALAR"
		},
		{
			"bufferView":4,
			"componentType":5126,
			"count":105531,
			"max":[
				7.430788040161133,
				3.4699344635009766,
				19.847503662109375
			],
			"min":[
				-44.829158782958984,
				-3.875101327896118,
				-32.41244888305664
			],
			"type":"VEC3"
		},
		{
			"bufferView":5,
			"componentType":5126,
			"count":105531,
			"type":"VEC3"
		},
		{
			"bufferView":6,
			"componentType":5126,
			"count":105531,
			"type":"VEC2"
		},
		{
			"bufferView":7,
			"componentType":5125,
			"count":589824,
			"type":"SCALAR"
		},
		{
			"bufferView":8,
			"componentType":5126,
			"count":38028,
			"max":[
				2.53289532661438,
				0.29354989528656006,
				15.039237976074219
			],
			"min":[
				-39.58183670043945,
				-0.9518095850944519,
				-27.120540618896484
			],
			"type":"VEC3"
		},
		{
			"bufferView":9,
			"componentType":5126,
			"count":38028,
			"type":"VEC3"
		},
		{
			"bufferView":10,
			"componentType":5126,
			"count":38028,
			"type":"VEC2"
		},
		{
			"bufferView":11,
			"componentType":5123,
			"count":196608,
			"type":"SCALAR"
		},
		{
			"bufferView":12,
			"componentType":5126,
			"count":1667700,
			"max":[
				4.267951011657715,
				3.4904327392578125,
				15.78734302520752
			],
			"min":[
				-41.44226837158203,
				-3.841400623321533,
				-28.408248901367188
			],
			"type":"VEC3"
		},
		{
			"bufferView":13,
			"componentType":5126,
			"count":1667700,
			"type":"VEC3"
		},
		{
			"bufferView":14,
			"componentType":5126,
			"count":1667700,
			"type":"VEC2"
		},
		{
			"bufferView":15,
			"componentType":5125,
			"count":9584640,
			"type":"SCALAR"
		}
	],
	"bufferViews":[
		{
			"buffer":0,
			"byteLength":3648480,
			"byteOffset":0,
			"target":34962
		},
		{
			"buffer":0,
			"byteLength":3648480,
			"byteOffset":3648480,
			"target":34962
		},
		{
			"buffer":0,
			"byteLength":2432320,
			"byteOffset":7296960,
			"target":34962
		},
		{
			"buffer":0,
			"byteLength":5898240,
			"byteOffset":9729280,
			"target":34963
		},
		{
			"buffer":0,
			"byteLength":1266372,
			"byteOffset":15627520,
			"target":34962
		},
		{
			"buffer":0,
			"byteLength":1266372,
			"byteOffset":16893892,
			"target":34962
		},
		{
			"buffer":0,
			"byteLength":844248,
			"byteOffset":18160264,
			"target":34962
		},
		{
			"buffer":0,
			"byteLength":2359296,
			"byteOffset":19004512,
			"target":34963
		},
		{
			"buffer":0,
			"byteLength":456336,
			"byteOffset":21363808,
			"target":34962
		},
		{
			"buffer":0,
			"byteLength":456336,
			"byteOffset":21820144,
			"target":34962
		},
		{
			"buffer":0,
			"byteLength":304224,
			"byteOffset":22276480,
			"target":34962
		},
		{
			"buffer":0,
			"byteLength":393216,
			"byteOffset":22580704,
			"target":34963
		},
		{
			"buffer":0,
			"byteLength":20012400,
			"byteOffset":22973920,
			"target":34962
		},
		{
			"buffer":0,
			"byteLength":20012400,
			"byteOffset":42986320,
			"target":34962
		},
		{
			"buffer":0,
			"byteLength":13341600,
			"byteOffset":62998720,
			"target":34962
		},
		{
			"buffer":0,
			"byteLength":38338560,
			"byteOffset":76340320,
			"target":34963
		}
	],
	"buffers":[
		{
			"byteLength":114678880,
			"uri":"ball_bearing.bin"
		}
	]
}
